<?xml version="1.0" encoding="UTF-8"?>
<svg version="1.1" xmlns="http://www.w3.org/2000/svg" width="275" height="249">
<path d="M0 0 C23.20751314 -0.62723008 43.90408203 7.36105661 60.96875 23.15625 C73.80812595 36.22388152 83.16172091 54.59458084 83.96875 73.15625 C84.0203125 74.1565625 84.071875 75.156875 84.125 76.1875 C84.49858599 90.01018146 82.05525456 102.68676359 75.96875 115.15625 C75.54980469 116.06761719 75.13085938 116.97898437 74.69921875 117.91796875 C70.74250326 125.91121819 65.20968203 131.90633822 58.96875 138.15625 C58.31003906 138.8265625 57.65132812 139.496875 56.97265625 140.1875 C40.71554686 155.57057125 19.6694094 159.68286788 -1.94140625 159.44140625 C-9.43680578 159.21125897 -15.96192304 157.71078722 -23.03125 155.15625 C-23.92457031 154.8675 -24.81789062 154.57875 -25.73828125 154.28125 C-44.58959926 147.63133624 -58.64121328 132.38653152 -67.84375 115.15625 C-76.41444651 97.03619614 -78.10309345 75.14256478 -72.421875 55.8984375 C-68.30243672 44.81298281 -63.08409372 34.91333481 -55.03125 26.15625 C-54.33257812 25.37765625 -53.63390625 24.5990625 -52.9140625 23.796875 C-47.56823057 18.12762975 -41.79007503 13.9978044 -35.03125 10.15625 C-34.22945312 9.69347656 -33.42765625 9.23070313 -32.6015625 8.75390625 C-22.49389956 3.30239624 -11.39789797 0.58752051 0 0 Z " fill="#E43D33" transform="translate(83.03125,85.84375)"/>
<path d="M0 0 C8.59751812 -0.06971046 17.19491685 -0.12291754 25.79264832 -0.15543652 C29.78553294 -0.17104913 33.77822326 -0.1922061 37.77099609 -0.22631836 C41.62894585 -0.25907005 45.48670947 -0.27688609 49.3447876 -0.28463173 C50.81189908 -0.29014702 52.27900112 -0.30091673 53.74603271 -0.31719017 C66.01062617 -0.44774743 73.60439685 0.86731224 82.79296875 9.51953125 C85.90122833 13.01288494 87.64802812 16.55294784 89 21 C89.17491344 21.56228617 89.34982689 22.12457233 89.53004074 22.70389748 C90.15541674 25.75932702 90.1328357 28.66098423 90.14044189 31.78060913 C90.14341302 32.46174668 90.14638414 33.14288423 90.1494453 33.84466231 C90.15811409 36.12610896 90.15963899 38.40750303 90.16113281 40.68896484 C90.16576221 42.32512016 90.17078704 43.96127439 90.17617798 45.59742737 C90.18929075 50.0416661 90.19574455 54.48588973 90.20018864 58.93014479 C90.20312069 61.70685625 90.20722571 64.48356359 90.21169281 67.26027298 C90.22536372 75.94847767 90.23503282 84.63667293 90.2388947 93.32488763 C90.243377 103.35355675 90.26093457 113.38208967 90.2898953 123.41071737 C90.31150732 131.16369671 90.3215987 138.91663771 90.32293582 146.66964686 C90.32398403 151.29987171 90.32989551 155.92996846 90.34775543 160.56016159 C90.36422821 164.91533801 90.36639551 169.27028991 90.35761642 173.62548637 C90.35684567 175.22263248 90.36119385 176.81979063 90.37107468 178.41690636 C90.38378738 180.60001253 90.3779218 182.78232266 90.36749268 184.96542358 C90.36969252 186.79660768 90.36969252 186.79660768 90.3719368 188.66478539 C89.83006651 193.52381978 88.19355563 196.80644437 84.75 200.25 C77.52150194 204.84995331 69.81500225 204.30684763 61.5078125 204.30078125 C59.557043 204.30720894 59.557043 204.30720894 57.56686401 204.31376648 C54.82171537 204.3211992 52.07669539 204.32095922 49.33154297 204.31567383 C45.83601669 204.30988653 42.34102155 204.32680602 38.84558296 204.3500185 C35.48297192 204.36840606 32.12047337 204.36456831 28.7578125 204.36328125 C26.89178879 204.37709587 26.89178879 204.37709587 24.98806763 204.39118958 C9.68021553 204.31024585 9.68021553 204.31024585 4.38577271 199.54804993 C0.27645411 194.77218536 -0.14396805 191.49857057 -0.12025452 185.4324646 C-0.12110894 184.64263014 -0.12196337 183.85279569 -0.12284368 183.03902686 C-0.12449793 180.37804601 -0.11897801 177.71712744 -0.11352539 175.05615234 C-0.11324348 173.1544037 -0.11340133 171.25265495 -0.1139679 169.35090637 C-0.11425572 164.17556055 -0.10836136 159.00023774 -0.10139394 153.82489729 C-0.09515796 148.42099593 -0.09455641 143.0170941 -0.09336853 137.6131897 C-0.09025594 127.37449505 -0.08204352 117.13581103 -0.07201904 106.89712107 C-0.06085567 95.24312615 -0.05534689 83.58913073 -0.05032361 71.93513179 C-0.03986085 47.95674862 -0.02226279 23.97837491 0 0 Z " fill="#EF532E" transform="translate(173,40)"/>
<path d="M0 0 C12.62678682 10.25614502 21.69845495 26.2696621 23.8515625 42.41796875 C23.88205634 44.48734496 23.88934065 46.55713201 23.87939453 48.62670898 C23.87537628 49.71032211 23.87135803 50.79393524 23.86721802 51.91038513 C23.85946854 53.15163902 23.85946854 53.15163902 23.8515625 54.41796875 C11.37710458 54.51084561 -1.09727042 54.58182359 -13.57200432 54.62521744 C-19.36518484 54.64604938 -25.15812796 54.67428691 -30.95117188 54.71972656 C-36.5468083 54.76334072 -42.14221705 54.78713887 -47.73801041 54.79747772 C-49.86775417 54.80484116 -51.99748616 54.81922003 -54.12713242 54.84088898 C-57.12131971 54.87012968 -60.11457853 54.87391611 -63.10888672 54.87207031 C-63.9799556 54.88645142 -64.85102448 54.90083252 -65.74848938 54.91564941 C-75.50529553 54.8510054 -84.03155554 51.06039192 -91.1484375 44.41796875 C-98.63147055 36.23923421 -101.35374446 27.46348338 -101.1484375 16.41796875 C-99.71630965 5.30854982 -94.89864786 -2.9862556 -86.29296875 -10.078125 C-62.14470102 -27.01270255 -21.60378559 -15.90824212 0 0 Z " fill="#EE552D" transform="translate(142.1484375,24.58203125)"/>
<path d="" fill="#ED4234" transform="translate(0,0)"/>
</svg>
